<svg width="15" height="15" viewBox="0 0 15 15" fill="none" xmlns="http://www.w3.org/2000/svg">
<path d="M14.4505 13.1993L10.5805 9.32927C11.2815 8.40027 11.7025 7.24827 11.7025 5.99727C11.7025 2.93727 9.21354 0.447266 6.15254 0.447266C3.09254 0.447266 0.602539 2.93727 0.602539 5.99727C0.602539 9.05827 3.09254 11.5473 6.15254 11.5473C7.40354 11.5473 8.55554 11.1263 9.48454 10.4253L13.3545 14.2953C13.5055 14.4463 13.7045 14.5233 13.9025 14.5233C14.1005 14.5233 14.2985 14.4473 14.4505 14.2953C14.7535 13.9923 14.7535 13.5023 14.4505 13.1993ZM1.70254 5.99727C1.70254 3.54327 3.69954 1.54727 6.15254 1.54727C8.60654 1.54727 10.6025 3.54427 10.6025 5.99727C10.6025 8.45027 8.60654 10.4473 6.15254 10.4473C3.69854 10.4473 1.70254 8.45127 1.70254 5.99727Z" fill="black" fill-opacity="0.8"/>
</svg>
