<svg width="14" height="15" viewBox="0 0 14 15" fill="none" xmlns="http://www.w3.org/2000/svg">
<path d="M11.6467 3.02559H10.6262C10.5168 2.21457 10.1205 1.46959 9.50903 0.925685C8.89758 0.381776 8.11148 0.074939 7.29324 0.060791C6.475 0.074939 5.68891 0.381776 5.07745 0.925685C4.466 1.46959 4.06964 2.21457 3.96024 3.02559H2.94024C2.37903 3.02596 1.8409 3.24901 1.44399 3.64577C1.04708 4.04253 0.823825 4.58058 0.823242 5.14179V12.8573C0.823745 13.4184 1.04685 13.9565 1.44359 14.3533C1.84033 14.7501 2.3783 14.9734 2.93944 14.974H11.6464C12.2077 14.9735 12.7458 14.7504 13.1427 14.3535C13.5396 13.9567 13.7627 13.4185 13.7632 12.8573V5.14179C13.7627 4.58067 13.5395 4.0427 13.1427 3.64595C12.7459 3.2492 12.2079 3.02609 11.6467 3.02559ZM7.29324 1.16039C7.82065 1.17186 8.32836 1.36296 8.73243 1.70211C9.13649 2.04126 9.41272 2.50815 9.51544 3.02559H5.07104C5.17377 2.50815 5.44999 2.04126 5.85406 1.70211C6.25812 1.36296 6.76583 1.17186 7.29324 1.16039ZM12.6632 12.8573C12.663 13.1269 12.5558 13.3853 12.3652 13.576C12.1746 13.7667 11.9162 13.874 11.6466 13.8744H2.93974C2.67018 13.8739 2.4118 13.7666 2.22125 13.576C2.0307 13.3853 1.92353 13.1269 1.92324 12.8573V5.14179C1.92356 4.87227 2.03077 4.61388 2.22135 4.4233C2.41193 4.23272 2.67032 4.12551 2.93984 4.12519H11.6468C11.9163 4.12556 12.1747 4.23279 12.3652 4.42337C12.5557 4.61394 12.6629 4.8723 12.6632 5.14179V12.8573Z" fill="black" fill-opacity="0.8"/>
</svg>
